<?xml version="1.0" standalone="no"?>
<!DOCTYPE svg PUBLIC "-//W3C//DTD SVG 20010904//EN"
 "http://www.w3.org/TR/2001/REC-SVG-20010904/DTD/svg10.dtd">
<svg version="1.0" xmlns="http://www.w3.org/2000/svg"
 width="1280.000000pt" height="640.000000pt" viewBox="0 0 1280.000000 640.000000"
 preserveAspectRatio="xMidYMid meet">
<g transform="translate(0.000000,640.000000) scale(0.100000,-0.100000)"
fill="#000000" stroke="none">
<path d="M315 3726 c-155 -49 -251 -149 -300 -313 -21 -71 -19 -104 10 -199
57 -187 194 -316 382 -360 102 -24 325 -14 460 20 210 53 370 130 700 337 94
59 203 124 242 144 91 45 389 172 509 216 50 18 92 38 92 43 0 25 -213 -18
-391 -80 -210 -73 -398 -164 -669 -322 -160 -94 -318 -172 -425 -210 -143 -50
-378 -39 -515 25 -75 36 -188 150 -225 228 -73 154 -4 290 173 341 128 37 251
2 357 -101 65 -63 96 -128 103 -211 3 -41 9 -64 16 -61 22 6 68 115 73 175 11
114 -65 222 -201 286 -39 19 -95 39 -124 45 -70 15 -217 13 -267 -3z"/>
<path d="M12203 3726 c-125 -31 -246 -116 -288 -201 -32 -64 -28 -165 10 -240
17 -32 35 -61 41 -62 7 -3 13 20 16 61 7 83 38 148 103 211 106 103 229 138
357 101 177 -51 246 -187 173 -341 -37 -78 -150 -192 -225 -228 -137 -64 -372
-75 -515 -25 -107 38 -265 116 -425 210 -271 158 -459 249 -669 322 -178 62
-391 105 -391 80 0 -5 42 -25 93 -43 119 -44 417 -171 508 -216 39 -20 148
-85 242 -144 443 -278 648 -358 947 -368 227 -8 348 31 465 151 68 70 107 135
131 222 28 99 28 133 0 221 -44 134 -112 211 -238 268 -55 26 -76 30 -173 32
-67 1 -131 -3 -162 -11z"/>
<path d="M9310 3669 c-516 -32 -1071 -145 -1696 -345 -709 -226 -922 -278
-1269 -308 l-140 -13 70 -8 c97 -11 503 1 660 20 426 51 814 141 1310 305 335
111 519 151 848 186 214 22 621 15 757 -14 171 -37 274 -82 357 -156 135 -122
106 -238 -77 -302 -45 -15 -83 -19 -200 -19 -127 1 -152 4 -202 24 -87 34
-160 106 -209 207 -23 46 -46 81 -50 78 -5 -3 -16 -30 -25 -61 -43 -147 36
-278 222 -365 163 -76 377 -100 537 -58 99 25 153 57 221 131 65 70 92 142 81
214 -22 153 -189 313 -420 406 -201 80 -409 101 -775 78z"/>
<path d="M2492 3510 c-168 -23 -292 -102 -353 -226 -28 -57 -31 -71 -26 -123
17 -194 247 -381 574 -468 88 -23 121 -26 328 -31 588 -11 1242 105 2040 363
519 169 813 244 1088 280 65 8 145 15 178 15 33 0 59 4 59 10 0 13 -430 13
-575 0 -465 -43 -914 -143 -1470 -329 -418 -140 -818 -200 -1245 -188 -355 10
-564 70 -691 197 -83 83 -95 155 -37 218 95 101 383 130 549 56 77 -35 154
-117 194 -207 17 -36 34 -67 38 -67 18 0 40 78 41 141 0 53 -5 74 -26 110 -31
53 -96 116 -160 153 -127 74 -351 117 -506 96z"/>
</g>
</svg>
